<svg id="Layer_8" data-name="Layer 8" xmlns="http://www.w3.org/2000/svg" xmlns:xlink="http://www.w3.org/1999/xlink" viewBox="0 0 26.47 26.47"><defs><style>.cls-1{fill:url(#linear-gradient);}.cls-2{fill:url(#linear-gradient-2);}.cls-3{fill:#fff;}.cls-4{fill:url(#linear-gradient-3);}.cls-5{fill:url(#linear-gradient-4);}</style><linearGradient id="linear-gradient" x1="9.76" y1="577.26" x2="26.54" y2="594.04" gradientTransform="translate(0.36 -566.65)" gradientUnits="userSpaceOnUse"><stop offset="0" stop-color="#62e1fb"/><stop offset="1" stop-color="#00a2f3"/></linearGradient><linearGradient id="linear-gradient-2" x1="12.92" y1="584.63" x2="4.09" y2="575.8" gradientTransform="translate(0.36 -566.65)" gradientUnits="userSpaceOnUse"><stop offset="0" stop-color="#00a2f3" stop-opacity="0"/><stop offset="1" stop-color="#0075cd"/></linearGradient><linearGradient id="linear-gradient-3" x1="18.7" y1="584.63" x2="9.86" y2="575.8" xlink:href="#linear-gradient-2"/><linearGradient id="linear-gradient-4" x1="24.47" y1="584.63" x2="15.64" y2="575.8" xlink:href="#linear-gradient-2"/></defs><title>comment</title><path class="cls-1" d="M15.21,1.76a13.19,13.19,0,0,0-13.44,13,12.86,12.86,0,0,0,.3,3.12A23.7,23.7,0,0,1,2.67,23V26.4a.93.93,0,0,0,.93.93H7a23.7,23.7,0,0,1,5.17.6,12.86,12.86,0,0,0,3.12.3,13.24,13.24,0,0,0,0-26.47Z" transform="translate(-1.76 -1.76)"/><path class="cls-2" d="M10.26,14.29a2,2,0,0,0-1.49-.65,2.05,2.05,0,0,0-1.4,3.55l4.42,4.42a2,2,0,0,0,1.49.65,2.05,2.05,0,0,0,1.4-3.55Z" transform="translate(-1.76 -1.76)"/><circle class="cls-3" cx="7.01" cy="13.93" r="2.05"/><path class="cls-4" d="M16.06,14.29a2,2,0,0,0-1.49-.65,2.05,2.05,0,0,0-2.05,2,2.09,2.09,0,0,0,.64,1.5l4.43,4.42a2,2,0,0,0,1.49.65,2.05,2.05,0,0,0,1.4-3.55Z" transform="translate(-1.76 -1.76)"/><circle class="cls-3" cx="12.81" cy="13.93" r="2.05"/><path class="cls-5" d="M21.86,14.29a2,2,0,0,0-3.54,1.4,2.09,2.09,0,0,0,.64,1.5l4.43,4.42a2,2,0,0,0,1.49.65,2.05,2.05,0,0,0,1.4-3.55Z" transform="translate(-1.76 -1.76)"/><circle class="cls-3" cx="18.6" cy="13.93" r="2.05"/></svg>