<svg id="Layer_6" data-name="Layer 6" xmlns="http://www.w3.org/2000/svg" viewBox="0 0 25.42 27.11"><defs><style>.cls-1{fill:#0095ff;}.cls-2{fill:#20a1d3;}.cls-3{fill:#1fb6ff;}</style></defs><title>share</title><polygon class="cls-1" points="8.55 12.94 7.74 11.58 16.83 6.11 17.64 7.48 8.55 12.94"/><polygon class="cls-1" points="16.75 21.27 7.99 16.79 8.7 15.37 17.47 19.85 16.75 21.27"/><path class="cls-2" d="M23,1.44a4.77,4.77,0,1,0,4.76,4.77A4.78,4.78,0,0,0,23,1.44Z" transform="translate(-2.3 -1.44)"/><path class="cls-2" d="M23,19a4.77,4.77,0,1,0,4.76,4.77A4.78,4.78,0,0,0,23,19Z" transform="translate(-2.3 -1.44)"/><path class="cls-2" d="M7.07,11a4.77,4.77,0,1,0,4.76,4.76A4.78,4.78,0,0,0,7.07,11Z" transform="translate(-2.3 -1.44)"/><path class="cls-3" d="M27.72,23.79A4.78,4.78,0,0,1,23,28.56V19A4.78,4.78,0,0,1,27.72,23.79Z" transform="translate(-2.3 -1.44)"/><path class="cls-3" d="M23,11V1.44A4.77,4.77,0,0,1,23,11Z" transform="translate(-2.3 -1.44)"/><path class="cls-3" d="M11.83,15.79a4.77,4.77,0,0,1-4.76,4.77V11A4.77,4.77,0,0,1,11.83,15.79Z" transform="translate(-2.3 -1.44)"/></svg>