<svg id="Layer_7" data-name="Layer 7" xmlns="http://www.w3.org/2000/svg" viewBox="0 0 23.79 23.79"><defs><style>.cls-1{fill:#ffca28;}.cls-2{fill:#f44336;}.cls-3{fill:#6d4c41;}</style></defs><title>happy</title><circle class="cls-1" cx="11.89" cy="11.89" r="11.89"/><path class="cls-2" d="M24.53,20.33l-1.87-1.87a.76.76,0,0,0-.69-.2.7.7,0,0,0-.53.47l-.72,2-2,.72a.72.72,0,0,0-.47.53.74.74,0,0,0,.2.69l1.87,1.87a2.95,2.95,0,0,0,4.2,0,2.95,2.95,0,0,0,0-4.2Z" transform="translate(-3.11 -3.11)"/><path class="cls-3" d="M15,23.92a8.94,8.94,0,0,1-8.58-6.49.76.76,0,0,1,.51-.92.74.74,0,0,1,.92.52,7.43,7.43,0,0,0,14.3,0,.74.74,0,1,1,1.43.4A8.94,8.94,0,0,1,15,23.92Z" transform="translate(-3.11 -3.11)"/><path class="cls-3" d="M21.69,12.77A.74.74,0,0,1,21,12a1.49,1.49,0,1,0-3,0,.74.74,0,0,1-1.48,0,3,3,0,1,1,5.94,0A.74.74,0,0,1,21.69,12.77Z" transform="translate(-3.11 -3.11)"/><path class="cls-3" d="M12.77,12.77A.74.74,0,0,1,12,12a1.49,1.49,0,0,0-3,0,.74.74,0,0,1-1.48,0,3,3,0,1,1,5.94,0A.74.74,0,0,1,12.77,12.77Z" transform="translate(-3.11 -3.11)"/></svg>