<svg id="search" xmlns="http://www.w3.org/2000/svg" viewBox="0 0 23.73 24.58"><title>black</title><path d="M13.88,2.75,15,2.94a9.58,9.58,0,0,1,4.55,2.22,9.87,9.87,0,0,1,2.62,11.51,11.31,11.31,0,0,1-.66,1.24c-.24.4-.53.76-.8,1.16l.18.19L26.45,25a1.31,1.31,0,0,1,.27,1.66,1.29,1.29,0,0,1-1.93.33,3.07,3.07,0,0,1-.26-.25L19,21c-.05-.05-.09-.12-.11-.14-.67.34-1.27.71-1.91,1A9.66,9.66,0,0,1,9,21.7a9.88,9.88,0,0,1-5.78-8.1A9.55,9.55,0,0,1,3.9,9,9.86,9.86,0,0,1,8.7,3.79a9.67,9.67,0,0,1,3.48-1s.05,0,.07,0ZM13.1,5.34a7.34,7.34,0,1,0,7.33,7.35A7.35,7.35,0,0,0,13.1,5.34Z" transform="translate(-3.17 -2.75)"/></svg>