<svg xmlns="http://www.w3.org/2000/svg" viewBox="0 0 21 18.87"><defs><style>.cls-1{fill:#d4f5ff;}.cls-2{fill:#1fb6ff;}.cls-3{fill:#fff;}.cls-4{fill:#34A85370;}</style></defs><title>explore</title><g id="Layer_2" data-name="Layer 2"><path class="cls-1" d="M24.41,15A9.41,9.41,0,0,1,5.59,15,9.65,9.65,0,0,1,15,5.59,9.5,9.5,0,0,1,24.41,15Z" transform="translate(-4.5 -5.57)"/><path class="cls-2" d="M9,6.14A3.94,3.94,0,1,0,13,10.08,3.93,3.93,0,0,0,9,6.14Z" transform="translate(-4.5 -5.57)"/><path class="cls-2" d="M10,10.08c0,.12,0,.24,0,.35a1,1,0,0,1-.89,1,1,1,0,0,1-1-.72,3.81,3.81,0,0,1,0-1.26,1,1,0,0,1,1-.72,1,1,0,0,1,.89,1C10,9.85,10,10,10,10.08Z" transform="translate(-4.5 -5.57)"/><path class="cls-2" d="M10.91,13.25a3.67,3.67,0,0,1-3.81,0L7,13.17A2,2,0,0,1,7.75,12a.24.24,0,0,1,.33,0A1.73,1.73,0,0,0,10,12a.21.21,0,0,1,.29,0A2.24,2.24,0,0,1,11,13,.16.16,0,0,1,10.91,13.25Z" transform="translate(-4.5 -5.57)"/><circle class="cls-2" cx="16.48" cy="14.35" r="3.94"/><path class="cls-2" d="M24.68,19.83v0s0-.08,0-.12a.22.22,0,0,0,0-.08h0v-.08h0s0-.06,0-.09a.22.22,0,0,0,0-.08.43.43,0,0,0,0-.11.29.29,0,0,0,0-.09,1.24,1.24,0,0,0,0-.16,3.69,3.69,0,0,0-.69-1.37l0,0-.05-.06a3.66,3.66,0,0,0-2.06-1.21h-.05a3.17,3.17,0,0,0-.69-.07,3.63,3.63,0,0,0-1.48.31.2.2,0,0,0-.08,0l-.09,0-.08,0a2.61,2.61,0,0,0-.28.17l-.06,0-.07,0-.07.05-.05,0-.06.05-.12.1-.1.09h0l-.09.1a3.66,3.66,0,0,0-.66,4.27h0c.08.14.16.28.25.42h0a3.66,3.66,0,0,0,2.79,1.57,3.7,3.7,0,0,1-1.55-.46C19,23,19,23,19.06,22.75a2.14,2.14,0,0,1,.62-.89.27.27,0,0,1,.38,0,1.71,1.71,0,0,0,1.87,0,.23.23,0,0,1,.32,0A2,2,0,0,1,23,23a3.26,3.26,0,0,1-1.41.55,3.15,3.15,0,0,1-.52.05,3.69,3.69,0,0,0,3.14-1.85l0,0a4,4,0,0,0,.4-1.08l0-.17s0-.06,0-.09,0-.06,0-.1,0-.12,0-.18v-.28Z" transform="translate(-4.5 -5.57)"/><path class="cls-2" d="M22,19.58c0,.25,0,.49,0,.74a.93.93,0,0,1-.63.87,1,1,0,0,1-1-.18.93.93,0,0,1-.33-.78c0-.11,0-.22,0-.32s0-.22,0-.33a1,1,0,0,1,1-1A1,1,0,0,1,22,19.58Z" transform="translate(-4.5 -5.57)"/><path class="cls-2" d="M21,23.61h0Z" transform="translate(-4.5 -5.57)"/><path d="M25.36,18.83a4.65,4.65,0,0,0-1-1.95.29.29,0,0,1,0-.2c0-.43.12-.85.15-1.28a8.44,8.44,0,0,0-.25-2.55,12.78,12.78,0,0,0-.57-1.68,10,10,0,0,0-.72-1.32.38.38,0,0,0-.56-.14.42.42,0,0,0-.11.61c.06.08.1.18.17.26s.07.22-.09.31a3.54,3.54,0,0,0-.65.44,1.34,1.34,0,0,0-.42,1.15.3.3,0,0,1-.14.33,8.48,8.48,0,0,1-1.95.79.33.33,0,0,1-.44-.23c0-.14-.06-.29-.09-.44A5.56,5.56,0,0,0,18,11a2,2,0,0,0-.89-.79,1.61,1.61,0,0,0-1.49.17,1.63,1.63,0,0,0-.88,1.22,1.13,1.13,0,0,1-.37.84,1.33,1.33,0,0,0-.52,1.48,1.1,1.1,0,0,1-.34,1.18,1.09,1.09,0,0,1-1.46,0,1.59,1.59,0,0,1-.4-1.11.4.4,0,0,1,.15-.3A4.24,4.24,0,0,0,13,12.14a4.51,4.51,0,0,0-.33-4.65c-.15-.21-.31-.4-.48-.62l.09,0a7.82,7.82,0,0,1,2.44-.42,10.18,10.18,0,0,1,1.65.12,7.86,7.86,0,0,1,3,1.08,3.28,3.28,0,0,0,.44.25.41.41,0,0,0,.5-.23.39.39,0,0,0-.19-.52c-.49-.27-1-.55-1.48-.78a8.48,8.48,0,0,0-3.39-.74,9.85,9.85,0,0,0-1.8.13,13,13,0,0,0-1.83.49.46.46,0,0,1-.38,0A4.31,4.31,0,0,0,8,5.69a4.45,4.45,0,0,0-2.8,2,4.37,4.37,0,0,0-.67,2.75A4.54,4.54,0,0,0,5.66,13.1a.34.34,0,0,1,.06.24c0,.38-.12.75-.14,1.13a9.5,9.5,0,0,0,.13,2.13,9,9,0,0,0,1.17,3.17A14,14,0,0,0,7.79,21a.38.38,0,0,0,.64-.12.45.45,0,0,0-.1-.48l-.57-.77c.13-.06.22-.08.3-.13.35-.24.7-.46,1-.71s.42-.24.68,0,.4.43.58.66a1.56,1.56,0,0,0,1.36.64c.41,0,.81-.06,1.22-.08s.35,0,.34.34a4.18,4.18,0,0,1-.09.71,1.48,1.48,0,0,0,.44,1.41c.22.22.44.41.39.77s0,.25-.25.21a4.41,4.41,0,0,1-.74-.15c-.65-.21-1.28-.45-1.92-.69a.4.4,0,0,0-.54.21.42.42,0,0,0,.19.54c.26.12.52.24.79.34a9.44,9.44,0,0,0,2.67.62,7.66,7.66,0,0,0,2.14-.07,20.71,20.71,0,0,0,2-.53.44.44,0,0,1,.39,0,4.32,4.32,0,0,0,2.07.6,4.21,4.21,0,0,0,1.41-.19,4.53,4.53,0,0,0,3.19-3.61A4.54,4.54,0,0,0,25.36,18.83ZM6.15,7.76a3.68,3.68,0,0,1,5.54-.23,3.6,3.6,0,0,1,0,5c-.18-.28-.36-.57-.56-.84s-.28-.25-.41-.39a.23.23,0,0,1-.06-.18,7.36,7.36,0,0,0,.12-.8,3.63,3.63,0,0,0,0-1A1.81,1.81,0,0,0,8,8.21a1.71,1.71,0,0,0-.79,1.5c0,.38,0,.77,0,1.15a.2.2,0,0,0,0,.13c.12.18,0,.29-.11.4a2.86,2.86,0,0,0-.85,1.17A3.62,3.62,0,0,1,6.15,7.76ZM10,10.08c0,.12,0,.24,0,.35a1,1,0,0,1-.89,1,1,1,0,0,1-1-.72,3.81,3.81,0,0,1,0-1.26,1,1,0,0,1,1-.72,1,1,0,0,1,.89,1C10,9.85,10,10,10,10.08ZM8.08,12A1.73,1.73,0,0,0,10,12a.21.21,0,0,1,.29,0A2.24,2.24,0,0,1,11,13a.16.16,0,0,1-.08.22,3.67,3.67,0,0,1-3.81,0L7,13.17A2,2,0,0,1,7.75,12,.24.24,0,0,1,8.08,12Zm8.11,11.54c-.38.06-.78.06-1.18.09-.13,0-.18,0-.17-.18a4.84,4.84,0,0,0,0-.53,1.62,1.62,0,0,0-.58-.93.75.75,0,0,1-.22-.72A2.84,2.84,0,0,0,14.06,20a.93.93,0,0,0-.92-.75,11.87,11.87,0,0,0-1.19.07,1.1,1.1,0,0,1-1.09-.51,3.72,3.72,0,0,0-.7-.73,1.16,1.16,0,0,0-1.57.08,8.64,8.64,0,0,1-.94.64c-.26.15-.29.12-.42-.14a7.81,7.81,0,0,1-.78-2.75,16.3,16.3,0,0,1,0-1.85.86.86,0,0,1,0-.23,10.8,10.8,0,0,0,1,.48,3.66,3.66,0,0,0,1.94.22c.39-.07.77-.16,1.15-.26.16,0,.18,0,.21.15a2.12,2.12,0,0,0,1.49,1.72,2,2,0,0,0,2.34-1.49,3.8,3.8,0,0,0,0-.82,1.63,1.63,0,0,1,0-.38.54.54,0,0,1,.16-.33,1.74,1.74,0,0,0,.72-1.28,1.11,1.11,0,0,1,1-.95.87.87,0,0,1,.74.44,3.82,3.82,0,0,1,.54,1.49c.06.29.12.57.2.85a1.05,1.05,0,0,0,1.24.72,7.21,7.21,0,0,0,2.25-.85,1,1,0,0,0,.61-.92c0-.62.05-.78.81-1.1a8.43,8.43,0,0,1,.66,4.6c-2.33-1.22-4.42-1-6.13,1.08a4.5,4.5,0,0,0,.44,6C17.25,23.29,16.73,23.43,16.19,23.52Zm5.38,0a3.15,3.15,0,0,1-.52.05h-.3a3.7,3.7,0,0,1-1.55-.46C19,23,19,23,19.06,22.75a2.14,2.14,0,0,1,.62-.89.27.27,0,0,1,.38,0,1.71,1.71,0,0,0,1.87,0,.23.23,0,0,1,.32,0A2,2,0,0,1,23,23,3.26,3.26,0,0,1,21.57,23.56Zm.4-3.24a.93.93,0,0,1-.63.87,1,1,0,0,1-1-.18.93.93,0,0,1-.33-.78c0-.11,0-.22,0-.32s0-.22,0-.33a1,1,0,0,1,1-1,1,1,0,0,1,1,1C22,19.83,22,20.07,22,20.32Zm2.71-.3v.09c0,.06,0,.12,0,.18s0,.07,0,.1,0,.06,0,.09l0,.17a3.76,3.76,0,0,1-.4,1.08l0,0a2.73,2.73,0,0,1-.49.61c-.21-.3-.4-.61-.61-.89a4,4,0,0,0-.37-.33.21.21,0,0,1-.06-.18,1.86,1.86,0,0,0,.13-.84,5.21,5.21,0,0,0-.05-1A1.79,1.79,0,0,0,20,18.05a1.67,1.67,0,0,0-.8,1.47,4.8,4.8,0,0,0,0,1.14.62.62,0,0,1-.24.73,5.47,5.47,0,0,0-.73,1A1.42,1.42,0,0,1,18,22h0a3.33,3.33,0,0,1-.25-.42h0a3.83,3.83,0,0,1-.3-2.55,3.78,3.78,0,0,1,1-1.72l.09-.1h0l.1-.09.12-.1.06-.05.05,0,.07-.05.07,0,.06,0a2.61,2.61,0,0,1,.28-.17l.08,0,.09,0a.2.2,0,0,1,.08,0,3.65,3.65,0,0,1,1.19-.29,3.53,3.53,0,0,1,1,.05h.05a3.55,3.55,0,0,1,2.06,1.21l.05.06,0,0a4.13,4.13,0,0,1,.55,1,2.07,2.07,0,0,1,.14.42.83.83,0,0,1,0,.15.29.29,0,0,1,0,.09.43.43,0,0,1,0,.11.22.22,0,0,1,0,.08s0,.06,0,.09h0v.08h0a.22.22,0,0,1,0,.08s0,.08,0,.12V20Z" transform="translate(-4.5 -5.57)"/><path class="cls-3" d="M10.91,13.25a3.67,3.67,0,0,1-3.81,0L7,13.17A2,2,0,0,1,7.75,12a.24.24,0,0,1,.33,0A1.73,1.73,0,0,0,10,12a.21.21,0,0,1,.29,0A2.24,2.24,0,0,1,11,13,.16.16,0,0,1,10.91,13.25Z" transform="translate(-4.5 -5.57)"/><path class="cls-3" d="M10,10.43a1,1,0,0,1-.89,1,1,1,0,0,1-1-.72,3.81,3.81,0,0,1,0-1.26,1,1,0,0,1,1-.72,1,1,0,0,1,.89,1c0,.12,0,.24,0,.35S10,10.32,10,10.43Z" transform="translate(-4.5 -5.57)"/><path class="cls-3" d="M23,23a3.26,3.26,0,0,1-1.41.55,3.15,3.15,0,0,1-.52.05h-.3a3.7,3.7,0,0,1-1.55-.46C19,23,19,23,19.06,22.75a2.14,2.14,0,0,1,.62-.89.27.27,0,0,1,.38,0,1.71,1.71,0,0,0,1.87,0,.23.23,0,0,1,.32,0A2,2,0,0,1,23,23Z" transform="translate(-4.5 -5.57)"/><path class="cls-3" d="M22,19.58c0,.25,0,.49,0,.74a.93.93,0,0,1-.63.87,1,1,0,0,1-1-.18.93.93,0,0,1-.33-.78c0-.11,0-.22,0-.32s0-.22,0-.33a1,1,0,0,1,1-1A1,1,0,0,1,22,19.58Z" transform="translate(-4.5 -5.57)"/><path d="M9,22.05a.39.39,0,0,1,.41-.41.41.41,0,0,1,0,.82A.38.38,0,0,1,9,22.05Z" transform="translate(-4.5 -5.57)"/><path d="M21,8.61a.37.37,0,0,1,.38-.4.38.38,0,0,1,.4.42c0,.27-.12.39-.4.39A.37.37,0,0,1,21,8.61Z" transform="translate(-4.5 -5.57)"/><path class="cls-4" d="M17.83,23.17c-.58.12-1.1.26-1.64.35-.38.06-.78.06-1.18.09-.13,0-.18,0-.17-.18a4.84,4.84,0,0,0,0-.53,1.62,1.62,0,0,0-.58-.93.75.75,0,0,1-.22-.72A2.83,2.83,0,0,0,14.06,20a.93.93,0,0,0-.92-.75,11.87,11.87,0,0,0-1.19.07,1.1,1.1,0,0,1-1.09-.51,3.72,3.72,0,0,0-.7-.73,1.16,1.16,0,0,0-1.57.08,7.89,7.89,0,0,1-1,.64c-.25.15-.28.12-.41-.14a7.81,7.81,0,0,1-.78-2.75c-.06-.61,0-1.23,0-1.85a.86.86,0,0,1,0-.23,10.8,10.8,0,0,0,1,.48,3.66,3.66,0,0,0,1.94.22c.39-.07.77-.16,1.15-.26.16,0,.18,0,.21.15a2.12,2.12,0,0,0,1.49,1.72,2,2,0,0,0,2.34-1.49,3.8,3.8,0,0,0,0-.82,1.63,1.63,0,0,1,0-.38.6.6,0,0,1,.16-.33,1.74,1.74,0,0,0,.72-1.28,1.09,1.09,0,0,1,1-.94.84.84,0,0,1,.74.43,3.82,3.82,0,0,1,.54,1.49c.06.29.12.57.2.85a1.05,1.05,0,0,0,1.24.72,7.31,7.31,0,0,0,2.25-.85,1,1,0,0,0,.61-.92c0-.62.05-.78.81-1.1a8.43,8.43,0,0,1,.66,4.6c-2.33-1.22-4.42-1-6.13,1.08A4.5,4.5,0,0,0,17.83,23.17Z" transform="translate(-4.5 -5.57)"/></g></svg>