<svg id="Layer_9" data-name="Layer 9" xmlns="http://www.w3.org/2000/svg" xmlns:xlink="http://www.w3.org/1999/xlink" viewBox="0 0 26.79 25.76"><defs><style>.cls-1{fill:url(#linear-gradient);}.cls-2{fill:url(#linear-gradient-2);}.cls-3{fill:url(#linear-gradient-3);}.cls-4{fill:url(#linear-gradient-4);}.cls-5{fill:#fff;}.cls-6{fill:url(#linear-gradient-5);}.cls-7{fill:url(#linear-gradient-6);}</style><linearGradient id="linear-gradient" x1="17.33" y1="581.3" x2="30.26" y2="594.23" gradientTransform="translate(0.36 -566.65)" gradientUnits="userSpaceOnUse"><stop offset="0" stop-color="#a7f3ce"/><stop offset="1" stop-color="#61db99"/></linearGradient><linearGradient id="linear-gradient-2" x1="21.56" y1="585.53" x2="16.07" y2="580.04" gradientTransform="translate(0.36 -566.65)" gradientUnits="userSpaceOnUse"><stop offset="0" stop-color="#61db99" stop-opacity="0"/><stop offset="1" stop-color="#009e74"/></linearGradient><linearGradient id="linear-gradient-3" x1="8.04" y1="575.22" x2="21.69" y2="588.88" gradientTransform="translate(0.36 -566.65)" gradientUnits="userSpaceOnUse"><stop offset="0" stop-color="#62e1fb"/><stop offset="1" stop-color="#00a2f3"/></linearGradient><linearGradient id="linear-gradient-4" x1="10.61" y1="581.22" x2="3.42" y2="574.03" gradientTransform="translate(0.36 -566.65)" gradientUnits="userSpaceOnUse"><stop offset="0" stop-color="#00a2f3" stop-opacity="0"/><stop offset="1" stop-color="#0075cd"/></linearGradient><linearGradient id="linear-gradient-5" x1="15.31" y1="581.22" x2="8.12" y2="574.03" xlink:href="#linear-gradient-4"/><linearGradient id="linear-gradient-6" x1="20.01" y1="581.22" x2="12.82" y2="574.03" xlink:href="#linear-gradient-4"/></defs><title>full comment</title><path class="cls-1" d="M19.4,9.85a8.81,8.81,0,0,1,9,8.67,8.48,8.48,0,0,1-.2,2.09,16,16,0,0,0-.4,3.45v2.25a.63.63,0,0,1-.63.62H24.91a16.11,16.11,0,0,0-3.46.4,9,9,0,0,1-2.08.21,8.85,8.85,0,0,1,0-17.69Z" transform="translate(-1.59 -1.78)"/><path class="cls-2" d="M19.4,9.85a8.81,8.81,0,0,1,9,8.67,8.48,8.48,0,0,1-.2,2.09,16,16,0,0,0-.4,3.45v2.25a.63.63,0,0,1-.63.62H24.91a16.11,16.11,0,0,0-3.46.4,9,9,0,0,1-2.08.21,8.85,8.85,0,0,1,0-17.69Z" transform="translate(-1.59 -1.78)"/><path class="cls-3" d="M12.54,1.78A10.74,10.74,0,0,0,1.6,12.34a10.58,10.58,0,0,0,.25,2.54,19.91,19.91,0,0,1,.48,4.21v2.74a.76.76,0,0,0,.76.76H5.83a19.91,19.91,0,0,1,4.21.48,11.17,11.17,0,0,0,2.54.26,10.78,10.78,0,0,0,0-21.55Z" transform="translate(-1.59 -1.78)"/><path class="cls-4" d="M8.51,12a1.62,1.62,0,0,0-1.21-.53,1.67,1.67,0,0,0-1.67,1.67,1.62,1.62,0,0,0,.53,1.21l3.59,3.6a1.67,1.67,0,1,0,2.36-2.35Z" transform="translate(-1.59 -1.78)"/><circle class="cls-5" cx="5.7" cy="11.34" r="1.67"/><path class="cls-6" d="M13.23,12A1.62,1.62,0,0,0,12,11.45a1.67,1.67,0,0,0-1.15,2.88l3.6,3.6a1.67,1.67,0,1,0,2.36-2.35Z" transform="translate(-1.59 -1.78)"/><circle class="cls-5" cx="10.42" cy="11.34" r="1.67"/><path class="cls-7" d="M18,12a1.64,1.64,0,0,0-1.21-.53,1.67,1.67,0,0,0-1.15,2.88l3.6,3.6a1.67,1.67,0,1,0,2.36-2.35Z" transform="translate(-1.59 -1.78)"/><circle class="cls-5" cx="15.14" cy="11.34" r="1.67"/></svg>