<svg id="premium" xmlns="http://www.w3.org/2000/svg" viewBox="0 0 19.07 22.22"><defs><style>.cls-1{fill:#92e5ff;}.cls-2{fill:#f9f5f5;}.cls-3{fill:#1fb6ff;}.cls-4{fill:#ffc50d;}.cls-5{fill:#ffe541;}</style></defs><title>premium</title><path class="cls-1" d="M20.83,9a.34.34,0,0,0-.29-.16H9.26A.34.34,0,0,0,9,9L6.22,13.79a.2.2,0,0,0,0,.24l8.5,9.52a.2.2,0,0,0,.3,0L23.56,14a.23.23,0,0,0,0-.24Zm0,0Z" transform="translate(-5.45 -3.87)"/><path class="cls-2" d="M6.19,13.92H12l-2.89-5L9,9,9,9,6.22,13.79a.21.21,0,0,0,0,.13Zm0,0Z" transform="translate(-5.45 -3.87)"/><path class="cls-3" d="M15,23.6l.07-.05L23.56,14a.23.23,0,0,0,0-.24L20.83,9a.34.34,0,0,0-.29-.16H18.41l2.92,5.05Zm0,0" transform="translate(-5.45 -3.87)"/><path class="cls-2" d="M23.61,13.92a.31.31,0,0,0,0-.13L20.83,9l0-.07-.07-.05-2.89,5Zm0,0Z" transform="translate(-5.45 -3.87)"/><path class="cls-1" d="M20.83,9l0-.07-.07-.05-1.14,2,1.76,3h2.28a.31.31,0,0,0,0-.13Zm0,0" transform="translate(-5.45 -3.87)"/><path class="cls-3" d="M16.66,13.09H13.14L12,13.92l2.84,9.68a.19.19,0,0,0,.15,0l2.85-9.68Zm0,0" transform="translate(-5.45 -3.87)"/><path class="cls-2" d="M14.9,8.87,12,13.92h5.84Zm0,0Z" transform="translate(-5.45 -3.87)"/><path class="cls-4" d="M20.78,20.54l.14.55A2.81,2.81,0,0,0,22.61,23a.13.13,0,0,1,0,.22,2.81,2.81,0,0,0-1.69,1.91l-.14.55a.11.11,0,0,1-.21,0l-.14-.55a2.81,2.81,0,0,0-1.69-1.91.13.13,0,0,1,0-.22,2.81,2.81,0,0,0,1.69-1.91l.14-.55a.11.11,0,0,1,.21,0Zm0,0" transform="translate(-5.45 -3.87)"/><path class="cls-5" d="M21.33,23A3,3,0,0,1,20,22a3.1,3.1,0,0,1-1.3,1,.13.13,0,0,0,0,.22,3.1,3.1,0,0,1,1.3,1,3,3,0,0,1,1.29-1,.13.13,0,0,0,0-.22Zm0,0" transform="translate(-5.45 -3.87)"/><path class="cls-4" d="M23.23,7.4l.07.28a1.43,1.43,0,0,0,.85,1,.07.07,0,0,1,0,.11,1.43,1.43,0,0,0-.85,1l-.07.28a.06.06,0,0,1-.11,0l-.06-.28a1.43,1.43,0,0,0-.85-1,.07.07,0,0,1,0-.11,1.43,1.43,0,0,0,.85-1l.06-.28a.06.06,0,0,1,.11,0Zm0,0" transform="translate(-5.45 -3.87)"/><path class="cls-5" d="M23.51,8.64a1.54,1.54,0,0,1-.65-.52,1.6,1.6,0,0,1-.65.52.07.07,0,0,0,0,.11,1.52,1.52,0,0,1,.65.52,1.47,1.47,0,0,1,.65-.52.07.07,0,0,0,0-.11Zm0,0" transform="translate(-5.45 -3.87)"/><path class="cls-4" d="M7.29,4.25l.1.4A2,2,0,0,0,8.61,6a.1.1,0,0,1,0,.16A2,2,0,0,0,7.39,7.56l-.1.4a.08.08,0,0,1-.16,0L7,7.56A2,2,0,0,0,5.81,6.19a.1.1,0,0,1,0-.16A2,2,0,0,0,7,4.65l.1-.4a.08.08,0,0,1,.16,0Zm0,0" transform="translate(-5.45 -3.87)"/><path class="cls-5" d="M7.68,6a2.21,2.21,0,0,1-.93-.74A2.24,2.24,0,0,1,5.81,6a.1.1,0,0,0,0,.16,2.24,2.24,0,0,1,.94.74,2.21,2.21,0,0,1,.93-.74.09.09,0,0,0,0-.16Zm0,0" transform="translate(-5.45 -3.87)"/><path d="M21.12,8.87a.68.68,0,0,0-.58-.33H9.26a.68.68,0,0,0-.58.33l-.8,1.4a.32.32,0,1,0,.56.32l.62-1.07,2.36,4.07H6.71l1-1.72a.32.32,0,0,0-.12-.44.32.32,0,0,0-.44.11L5.93,13.63a.54.54,0,0,0,.07.62l8.5,9.51a.5.5,0,0,0,.39.18h0a.52.52,0,0,0,.39-.17l8.52-9.52a.53.53,0,0,0,.06-.62Zm-5.53,4.72h-3L14.9,9.52l2.35,4.07h0a.33.33,0,0,0,0,.66h.16L14.89,22.7l-2.47-8.45h3.17a.33.33,0,0,0,0-.66Zm2.23-.32L15.46,9.19h4.71Zm.24,1h4.87l-7.26,8.1Zm5-.66H18.38l2.36-4.07ZM9.63,9.19h4.7L12,13.27Zm2.11,5.06,2.37,8.1-7.24-8.1Zm0,0" transform="translate(-5.45 -3.87)"/><path d="M22.79,22.73l-.05,0a3.12,3.12,0,0,1-.57-.32.32.32,0,0,0-.45.07.33.33,0,0,0,.07.46l.32.2a3,3,0,0,0-1.43,1.69,3,3,0,0,0-1.44-1.69,3,3,0,0,0,1.44-1.69v0a.32.32,0,0,0,.41.2.32.32,0,0,0,.2-.41c0-.08-.05-.15-.06-.22l-.14-.56a.44.44,0,0,0-.85,0l-.14.56a2.51,2.51,0,0,1-1.5,1.68l-.05,0a.46.46,0,0,0,0,.76l.05,0a2.51,2.51,0,0,1,1.5,1.68l.14.56a.44.44,0,0,0,.85,0l.14-.56a2.51,2.51,0,0,1,1.5-1.68l.05,0a.44.44,0,0,0,.2-.38.43.43,0,0,0-.2-.38Zm0,0" transform="translate(-5.45 -3.87)"/><path d="M24.33,8.37s0,0,0,0a1.07,1.07,0,0,1-.67-.74l-.07-.28a.38.38,0,0,0-.74,0l-.07.28a1.09,1.09,0,0,1-.67.74l-.05,0a.37.37,0,0,0-.17.32A.39.39,0,0,0,22,9l.05,0a1.09,1.09,0,0,1,.67.74l.07.28a.38.38,0,0,0,.74,0l.07-.28a1.07,1.07,0,0,1,.67-.74l0,0a.4.4,0,0,0,.18-.33.38.38,0,0,0-.18-.32Zm-1.15.79a1.73,1.73,0,0,0-.43-.47,1.6,1.6,0,0,0,.43-.47,1.6,1.6,0,0,0,.43.47,1.73,1.73,0,0,0-.43.47Zm0,0" transform="translate(-5.45 -3.87)"/><path d="M6.72,7.64l.09.4a.41.41,0,0,0,.8,0l.09-.4a1.73,1.73,0,0,1,1-1.15l0,0a.42.42,0,0,0,0-.7l0,0a1.73,1.73,0,0,1-1-1.15l-.09-.4a.41.41,0,0,0-.8,0l-.09.4a1.73,1.73,0,0,1-1,1.15l0,0a.43.43,0,0,0,0,.7l0,0a1.73,1.73,0,0,1,1,1.15Zm.49-2.5a2.29,2.29,0,0,0,.86,1,2.29,2.29,0,0,0-.86,1,2.29,2.29,0,0,0-.86-1,2.29,2.29,0,0,0,.86-1Zm0,0" transform="translate(-5.45 -3.87)"/></svg>